<svg width="28" height="29" viewBox="0 0 28 29" fill="none" xmlns="http://www.w3.org/2000/svg">
<g filter="url(#filter0_d_1651_1353)">
<path d="M11.3964 10.6543C11.3689 10.6543 11.3505 10.6543 11.323 10.6543C11.2772 10.6451 11.213 10.6451 11.158 10.6543C8.49969 10.5718 6.49219 8.48177 6.49219 5.90594C6.49219 3.28427 8.62802 1.14844 11.2497 1.14844C13.8714 1.14844 16.0072 3.28427 16.0072 5.90594C15.998 8.48177 13.9814 10.5718 11.4239 10.6543C11.4147 10.6543 11.4055 10.6543 11.3964 10.6543ZM11.2497 2.52344C9.38885 2.52344 7.86719 4.04511 7.86719 5.90594C7.86719 7.73927 9.29719 9.21511 11.1214 9.27927C11.1764 9.27011 11.2955 9.27011 11.4147 9.27927C13.2114 9.19677 14.623 7.72094 14.6322 5.90594C14.6322 4.04511 13.1105 2.52344 11.2497 2.52344Z" fill="#276FF5"/>
<path d="M18.1612 10.7741C18.1337 10.7741 18.1062 10.7741 18.0787 10.7649C17.7028 10.8016 17.3178 10.5358 17.2812 10.1599C17.2445 9.78409 17.4737 9.44492 17.8495 9.39909C17.9595 9.38992 18.0787 9.38992 18.1795 9.38992C19.5178 9.31659 20.5628 8.21659 20.5628 6.86909C20.5628 5.47576 19.4353 4.34826 18.042 4.34826C17.6662 4.35742 17.3545 4.04576 17.3545 3.66992C17.3545 3.29409 17.6662 2.98242 18.042 2.98242C20.187 2.98242 21.9378 4.73326 21.9378 6.87826C21.9378 8.98659 20.2878 10.6916 18.1887 10.7741C18.1795 10.7741 18.1703 10.7741 18.1612 10.7741Z" fill="#276FF5"/>
<path d="M11.4055 20.6741C9.60881 20.6741 7.80298 20.2158 6.43714 19.2991C5.16298 18.4558 4.46631 17.3008 4.46631 16.0449C4.46631 14.7891 5.16298 13.6249 6.43714 12.7724C9.18714 10.9483 13.6421 10.9483 16.3738 12.7724C17.6388 13.6158 18.3446 14.7708 18.3446 16.0266C18.3446 17.2824 17.648 18.4466 16.3738 19.2991C14.9988 20.2158 13.2021 20.6741 11.4055 20.6741ZM7.19798 13.9274C6.31798 14.5141 5.84131 15.2658 5.84131 16.0541C5.84131 16.8333 6.32714 17.5849 7.19798 18.1624C9.48048 19.6933 13.3305 19.6933 15.613 18.1624C16.493 17.5758 16.9696 16.8241 16.9696 16.0358C16.9696 15.2566 16.4838 14.5049 15.613 13.9274C13.3305 12.4058 9.48048 12.4058 7.19798 13.9274Z" fill="#276FF5"/>
<path d="M19.8113 19.0238C19.4905 19.0238 19.2063 18.8038 19.1422 18.4738C19.0688 18.0979 19.3072 17.7404 19.6738 17.6579C20.2513 17.5388 20.783 17.3096 21.1955 16.9888C21.718 16.5946 22.0022 16.0996 22.0022 15.5771C22.0022 15.0546 21.718 14.5596 21.2047 14.1746C20.8013 13.8629 20.2972 13.6429 19.7013 13.5054C19.3347 13.4229 19.0963 13.0563 19.1788 12.6804C19.2613 12.3138 19.628 12.0754 20.0038 12.1579C20.7922 12.3321 21.4797 12.6438 22.0388 13.0746C22.8913 13.7163 23.3772 14.6238 23.3772 15.5771C23.3772 16.5304 22.8822 17.4379 22.0297 18.0888C21.4613 18.5288 20.7463 18.8496 19.958 19.0054C19.903 19.0238 19.8572 19.0238 19.8113 19.0238Z" fill="#276FF5"/>
</g>
<defs>
<filter id="filter0_d_1651_1353" x="-1" y="0.00292969" width="30" height="30" filterUnits="userSpaceOnUse" color-interpolation-filters="sRGB">
<feFlood flood-opacity="0" result="BackgroundImageFix"/>
<feColorMatrix in="SourceAlpha" type="matrix" values="0 0 0 0 0 0 0 0 0 0 0 0 0 0 0 0 0 0 127 0" result="hardAlpha"/>
<feOffset dy="4"/>
<feGaussianBlur stdDeviation="2"/>
<feComposite in2="hardAlpha" operator="out"/>
<feColorMatrix type="matrix" values="0 0 0 0 0 0 0 0 0 0 0 0 0 0 0 0 0 0 0.25 0"/>
<feBlend mode="normal" in2="BackgroundImageFix" result="effect1_dropShadow_1651_1353"/>
<feBlend mode="normal" in="SourceGraphic" in2="effect1_dropShadow_1651_1353" result="shape"/>
</filter>
</defs>
</svg>
